<svg xmlns="http://www.w3.org/2000/svg" viewBox="0 0 100 100">
  <defs>
    <linearGradient id="grad1" x1="0%" y1="0%" x2="100%" y2="100%">
      <stop offset="0%" style="stop-color:#00fff2;stop-opacity:1" />
      <stop offset="50%" style="stop-color:#b980ff;stop-opacity:1" />
      <stop offset="100%" style="stop-color:#00ff9f;stop-opacity:1" />
    </linearGradient>
  </defs>
  
  <!-- Background circle -->
  <circle cx="50" cy="50" r="48" fill="#0b0d10" stroke="url(#grad1)" stroke-width="2"/>
  
  <!-- Candlestick chart representation -->
  <!-- Green (up) candle 1 -->
  <rect x="20" y="35" width="6" height="15" fill="#00ff9f" rx="1"/>
  <line x1="23" y1="30" x2="23" y2="35" stroke="#00ff9f" stroke-width="1.5"/>
  <line x1="23" y1="50" x2="23" y2="52" stroke="#00ff9f" stroke-width="1.5"/>
  
  <!-- Red (down) candle 2 -->
  <rect x="32" y="45" width="6" height="12" fill="#ff4444" rx="1"/>
  <line x1="35" y1="42" x2="35" y2="45" stroke="#ff4444" stroke-width="1.5"/>
  <line x1="35" y1="57" x2="35" y2="62" stroke="#ff4444" stroke-width="1.5"/>
  
  <!-- Green (up) candle 3 -->
  <rect x="44" y="30" width="6" height="20" fill="#00ff9f" rx="1"/>
  <line x1="47" y1="25" x2="47" y2="30" stroke="#00ff9f" stroke-width="1.5"/>
  <line x1="47" y1="50" x2="47" y2="52" stroke="#00ff9f" stroke-width="1.5"/>
  
  <!-- Red (down) candle 4 -->
  <rect x="56" y="40" width="6" height="15" fill="#ff4444" rx="1"/>
  <line x1="59" y1="38" x2="59" y2="40" stroke="#ff4444" stroke-width="1.5"/>
  <line x1="59" y1="55" x2="59" y2="60" stroke="#ff4444" stroke-width="1.5"/>
  
  <!-- Green (up) candle 5 -->
  <rect x="68" y="28" width="6" height="22" fill="#00ff9f" rx="1"/>
  <line x1="71" y1="22" x2="71" y2="28" stroke="#00ff9f" stroke-width="1.5"/>
  <line x1="71" y1="50" x2="71" y2="52" stroke="#00ff9f" stroke-width="1.5"/>
  
  <!-- Trend line -->
  <path d="M 15 55 Q 30 50, 45 45 T 75 35" fill="none" stroke="#00fff2" stroke-width="2" opacity="0.6" stroke-dasharray="3,3"/>
  
  <!-- Bottom accent -->
  <rect x="10" y="75" width="80" height="3" fill="url(#grad1)" rx="1.5" opacity="0.8"/>
</svg>

